<?xml version="1.0" standalone="no"?>
<!DOCTYPE svg PUBLIC "-//W3C//DTD SVG 20010904//EN"
 "http://www.w3.org/TR/2001/REC-SVG-20010904/DTD/svg10.dtd">
<svg version="1.0" xmlns="http://www.w3.org/2000/svg"
 width="136.000000pt" height="136.000000pt" viewBox="0 0 136.000000 136.000000"
 preserveAspectRatio="xMidYMid meet">
<metadata>
Created by potrace 1.11, written by Peter Selinger 2001-2013
</metadata>
<g transform="translate(0.000000,136.000000) scale(0.100000,-0.100000)"
fill="#000000" stroke="none">
<path d="M174 1261 c-208 -93 -134 -392 94 -375 119 9 204 135 169 250 -13 42
-60 100 -98 119 -45 24 -119 26 -165 6z"/>
<path d="M685 1005 c-201 -47 -336 -225 -336 -444 0 -277 200 -468 481 -457
134 6 232 47 319 136 83 85 120 185 121 328 1 305 -272 509 -585 437z m227
-208 c97 -41 154 -140 145 -257 -10 -145 -103 -233 -247 -233 -159 0 -260 113
-247 276 7 80 35 136 89 180 67 54 178 68 260 34z"/>
</g>
</svg>
